<svg xmlns="http://www.w3.org/2000/svg" width="1901" height="492" viewBox="0 0 1901 492">
<g>
<path d="M 751.50 476.82 C732.25,479.40 711.98,479.00 691.50,475.62 C677.95,473.38 671.70,473.07 618.00,472.01 C590.78,471.47 550.50,470.55 528.50,469.97 C381.66,466.12 236.36,464.97 153.00,467.01 C77.86,468.84 38.54,470.00 29.75,470.65 C21.37,471.26 21.00,471.20 21.00,469.22 C21.00,467.42 21.79,467.09 27.25,466.59 C33.58,466.01 67.74,464.89 140.50,462.89 C188.03,461.58 404.51,462.26 458.50,463.88 C478.30,464.48 516.78,465.46 544.00,466.07 C571.22,466.67 609.03,467.53 628.00,467.98 C646.97,468.43 662.86,468.47 663.29,468.06 C663.73,467.65 660.35,465.15 655.79,462.51 C641.26,454.09 629.49,443.76 613.46,425.36 C588.60,396.82 570.18,360.02 560.99,320.50 C559.84,315.55 558.48,309.91 557.97,307.98 C554.47,294.56 552.45,270.94 550.41,219.68 C549.92,207.31 549.47,203.73 548.35,203.31 C547.57,203.00 542.49,204.16 537.08,205.88 C526.04,209.38 523.15,209.65 519.10,207.55 C509.35,202.51 506.54,182.86 514.94,178.54 C516.35,177.82 521.55,176.25 526.50,175.06 C531.45,173.87 536.84,172.57 538.48,172.17 C542.20,171.26 545.15,166.99 547.35,159.35 C552.06,142.97 554.43,138.55 562.43,131.17 C571.90,122.44 589.59,113.24 606.00,108.50 C608.47,107.78 614.33,106.07 619.00,104.70 C623.67,103.33 632.00,101.23 637.50,100.04 C643.00,98.85 649.30,97.45 651.50,96.93 C653.70,96.40 658.42,95.55 662.00,95.03 C665.58,94.51 671.42,93.65 675.00,93.11 C721.41,86.16 789.97,83.97 836.00,87.96 C880.01,91.78 899.83,95.95 934.50,108.69 C944.53,112.37 958.03,120.77 965.74,128.12 C979.22,140.97 992.05,165.03 997.09,186.92 C998.24,191.91 999.34,196.00 999.54,196.00 C999.74,196.00 1001.29,193.08 1002.99,189.52 C1005.28,184.73 1007.22,182.25 1010.45,180.03 C1018.78,174.30 1040.42,166.82 1063.12,161.84 C1076.30,158.94 1105.97,158.11 1114.88,160.39 C1128.19,163.80 1135.27,170.37 1138.94,182.71 C1140.21,186.99 1141.49,191.18 1141.78,192.00 C1142.08,192.82 1142.24,194.00 1142.14,194.62 C1142.05,195.23 1142.65,196.30 1143.49,196.99 L 1143.60 197.08 C1144.14,197.54 1144.52,197.85 1144.71,197.76 C1145.13,197.57 1144.64,195.39 1143.05,188.39 L 1142.90 187.74 C1141.17,180.13 1140.90,176.47 1141.35,167.00 C1142.57,141.15 1149.36,125.48 1167.81,105.86 C1182.13,90.64 1205.84,74.12 1232.55,60.73 C1255.56,49.20 1273.25,42.74 1293.50,38.45 C1358.22,24.76 1397.90,20.09 1456.19,19.31 C1494.55,18.79 1510.59,19.94 1529.50,24.56 C1556.15,31.07 1571.58,45.96 1575.53,68.95 C1577.63,81.23 1577.71,81.48 1579.30,80.17 C1582.52,77.49 1593.57,72.84 1597.93,72.32 C1607.00,71.25 1612.00,76.71 1612.00,87.67 C1612.00,94.80 1608.98,99.95 1603.01,103.00 C1595.79,106.68 1584.08,104.98 1582.51,100.02 C1581.54,96.97 1582.43,96.33 1589.50,95.00 C1600.05,93.01 1603.96,87.96 1598.89,82.89 C1595.69,79.69 1587.30,80.60 1582.24,84.69 C1576.37,89.43 1576.15,91.36 1580.36,100.70 C1585.19,111.38 1586.57,119.44 1589.05,151.50 C1591.74,186.30 1591.95,225.31 1589.53,242.50 C1585.80,268.97 1580.66,292.29 1574.98,308.50 C1560.34,350.28 1531.58,379.47 1487.50,397.28 C1450.14,412.38 1423.54,418.00 1389.46,418.00 C1361.83,418.00 1342.43,414.52 1320.09,405.53 C1289.82,393.37 1264.34,376.34 1235.59,349.06 C1231.74,345.41 1228.49,343.03 1228.27,343.69 C1227.75,345.26 1233.08,353.10 1240.47,361.66 C1262.22,386.81 1287.53,403.21 1321.50,414.16 C1351.75,423.91 1372.83,424.82 1529.00,423.08 C1640.32,421.85 1675.53,421.26 1810.30,418.43 C1854.18,417.51 1890.36,417.03 1890.69,417.35 C1891.02,417.68 1890.72,418.64 1890.02,419.48 C1889.00,420.71 1886.05,421.00 1874.63,421.02 C1866.86,421.02 1846.55,421.48 1829.50,422.04 C1776.02,423.78 1657.69,425.91 1544.40,427.18 C1427.79,428.48 1362.82,427.63 1345.22,424.58 C1322.36,420.63 1292.16,409.06 1275.39,397.85 C1252.47,382.52 1231.31,360.83 1223.22,344.37 C1220.40,338.63 1220.76,336.00 1224.35,336.00 C1226.98,336.00 1229.82,338.20 1247.65,354.02 C1281.12,383.73 1313.80,402.04 1346.50,409.41 C1384.34,417.93 1424.74,414.95 1466.50,400.56 C1494.60,390.87 1509.56,383.20 1525.89,370.10 C1558.12,344.26 1572.69,315.74 1582.39,259.50 C1586.86,233.59 1587.79,200.45 1585.21,158.50 C1583.27,126.89 1581.51,115.42 1576.88,104.09 C1572.93,94.40 1572.23,90.31 1573.98,87.03 C1574.68,85.73 1574.39,82.92 1572.98,77.44 C1571.89,73.17 1571.00,68.61 1571.00,67.31 C1571.00,66.01 1569.39,61.54 1567.41,57.38 C1563.09,48.27 1555.17,39.93 1546.44,35.30 C1539.12,31.42 1524.17,27.38 1510.00,25.45 C1487.21,22.36 1433.36,22.62 1401.00,25.98 C1341.00,32.21 1288.69,42.00 1263.50,51.71 C1241.95,60.03 1214.50,74.78 1195.50,88.28 C1181.36,98.32 1162.52,117.31 1156.60,127.50 C1149.13,140.36 1146.90,148.78 1146.28,166.50 C1145.70,183.20 1145.82,183.88 1155.64,218.50 C1164.67,250.36 1180.15,286.03 1195.64,310.66 C1202.95,322.28 1204.63,325.69 1205.43,330.54 C1206.26,335.54 1204.86,339.48 1200.74,343.75 C1193.93,350.81 1185.50,346.17 1171.22,327.50 C1168.70,324.20 1165.15,319.83 1163.35,317.79 C1161.55,315.74 1158.92,312.37 1157.52,310.29 C1156.12,308.20 1152.71,303.35 1149.94,299.50 C1141.15,287.25 1135.24,274.67 1132.51,262.39 C1130.98,255.53 1130.97,254.53 1132.43,250.26 C1135.71,240.63 1142.54,237.88 1147.35,244.25 C1149.82,247.52 1153.66,256.05 1156.01,263.50 C1158.78,272.27 1166.47,290.11 1172.17,301.00 C1179.35,314.72 1189.10,329.60 1190.50,328.96 C1192.14,328.21 1191.12,322.72 1188.74,319.50 C1177.75,304.62 1167.97,287.33 1163.29,274.50 C1158.83,262.29 1145.19,219.16 1138.93,197.50 C1133.37,178.26 1131.50,174.41 1125.60,170.18 C1118.52,165.10 1112.91,163.72 1097.50,163.24 C1078.74,162.65 1060.18,165.90 1034.00,174.35 C1015.83,180.21 1010.28,183.82 1006.36,192.31 C1002.36,200.99 1002.49,210.04 1006.89,227.50 C1010.44,241.58 1011.79,244.49 1015.58,246.22 C1018.52,247.56 1021.50,252.22 1022.36,256.81 C1023.07,260.64 1019.74,290.98 1017.39,302.00 C1015.04,313.06 1011.60,322.14 1004.96,334.81 C998.02,348.04 989.32,360.02 984.47,363.02 C977.27,367.47 971.46,363.15 971.55,353.42 C971.58,350.44 971.50,348.00 971.38,348.00 C971.25,348.00 969.68,350.56 967.89,353.69 C962.22,363.60 950.95,381.21 944.98,389.50 C937.13,400.41 920.10,419.01 911.00,426.64 C902.61,433.67 886.36,445.05 878.00,449.75 C862.64,458.39 841.77,465.44 821.00,469.01 C802.86,472.13 794.00,471.51 794.00,467.12 C794.00,464.79 798.15,463.00 814.00,458.51 C829.83,454.02 840.08,450.86 842.00,449.87 C842.83,449.45 847.94,447.21 853.36,444.89 C872.38,436.78 892.29,423.08 910.17,405.83 C919.43,396.91 931.49,383.31 934.86,378.00 C935.74,376.62 936.73,375.27 937.06,375.00 C938.73,373.62 955.82,346.61 961.99,335.59 C969.22,322.67 980.48,300.21 982.83,294.00 C986.77,283.60 991.24,268.87 993.65,258.37 C996.16,247.40 996.37,244.80 996.42,224.00 C996.46,203.64 996.25,200.64 994.16,192.50 C985.44,158.59 968.90,132.41 949.25,121.39 C934.75,113.26 915.68,105.87 900.50,102.50 C875.78,97.01 871.62,96.27 853.00,94.05 C801.42,87.88 727.82,89.51 671.00,98.10 C626.45,104.83 592.58,115.55 571.38,129.62 C561.76,136.01 555.58,145.07 552.47,157.32 C551.75,160.17 550.37,164.57 549.40,167.09 C547.66,171.60 547.67,171.73 549.71,173.92 C555.86,180.52 551.64,192.41 541.50,197.10 C536.05,199.63 526.04,199.66 522.96,197.17 C519.32,194.22 520.96,190.98 529.72,183.82 C535.30,179.26 536.95,177.42 535.67,177.17 C534.70,176.99 533.36,177.26 532.70,177.78 C532.04,178.30 529.58,179.02 527.23,179.38 C524.89,179.74 521.19,180.74 519.01,181.61 C515.76,182.91 514.94,183.81 514.42,186.60 C513.55,191.21 514.59,196.10 517.31,200.13 C520.58,204.99 523.62,205.72 531.20,203.50 C534.66,202.48 538.01,201.26 538.64,200.79 C539.27,200.32 541.97,199.67 544.65,199.36 C548.58,198.89 549.98,199.16 551.98,200.78 L 554.45 202.78 L 555.19 230.64 C556.88,294.52 564.42,331.53 584.18,372.88 C589.27,383.53 589.80,384.45 599.20,399.00 C613.65,421.35 639.11,447.86 655.50,457.60 C662.69,461.87 673.78,466.72 679.00,467.88 C683.35,468.85 708.31,470.27 745.25,471.65 C755.01,472.01 763.00,472.67 763.00,473.12 C763.00,474.62 759.53,475.74 751.50,476.82 ZM 805.07 465.65 C804.11,466.70 821.77,465.07 828.85,463.45 C864.47,455.29 892.83,439.31 920.04,412.05 C936.70,395.36 944.60,384.49 964.02,351.55 C977.67,328.39 983.49,316.66 987.99,303.22 C991.30,293.30 995.32,275.99 994.50,275.16 C993.76,274.43 993.71,274.55 989.58,287.00 C984.38,302.65 975.25,321.58 963.99,340.00 C963.49,340.83 961.78,343.75 960.21,346.50 C938.48,384.42 917.38,408.81 887.00,431.10 C870.22,443.41 840.08,456.58 814.07,462.95 C809.44,464.09 805.39,465.30 805.07,465.65 ZM 1188.75 340.35 C1193.46,343.70 1194.98,343.68 1198.31,340.20 C1201.40,336.97 1201.87,332.02 1199.60,326.59 C1198.83,324.75 1194.39,316.78 1189.73,308.87 C1182.66,296.89 1168.00,268.21 1168.00,266.37 C1168.00,265.91 1162.35,252.01 1159.92,246.50 C1158.62,243.56 1149.73,214.07 1147.93,206.75 C1146.89,202.51 1145.00,200.18 1145.00,203.14 C1145.00,204.62 1155.61,240.91 1157.13,244.63 C1157.78,246.21 1158.46,248.27 1158.64,249.21 C1158.82,250.15 1160.15,253.97 1161.60,257.71 C1172.85,286.85 1177.09,295.48 1187.05,309.49 C1194.11,319.43 1196.00,323.49 1196.00,328.77 C1196.00,335.98 1191.13,337.19 1185.94,331.28 C1176.06,320.02 1162.08,292.84 1151.96,265.21 C1149.09,257.36 1145.86,249.82 1144.79,248.46 C1141.19,243.88 1137.23,245.86 1136.31,252.71 C1134.93,263.00 1142.30,281.16 1155.17,299.20 C1167.15,315.99 1184.64,337.42 1188.75,340.35 ZM 977.13 359.65 C977.74,360.39 978.95,361.00 979.81,361.00 C984.01,361.00 997.62,341.90 1005.10,325.50 C1011.53,311.39 1015.25,295.21 1017.02,273.58 C1018.24,258.62 1017.88,253.97 1015.32,251.85 C1013.85,250.63 1013.75,250.85 1014.34,254.00 C1015.59,260.74 1010.96,281.20 1002.46,306.50 C996.21,325.06 992.69,331.32 983.58,340.01 C980.58,342.88 977.37,346.80 976.46,348.73 C974.73,352.36 975.02,357.12 977.13,359.65 ZM 976.00 339.70 C976.00,341.89 977.01,341.21 982.62,335.25 C990.71,326.64 994.57,317.94 1004.52,286.00 C1009.07,271.39 1011.26,255.45 1009.39,250.58 C1008.32,247.78 1006.23,248.89 1004.04,253.41 C1001.98,257.68 1001.05,261.71 997.44,282.00 C995.16,294.82 992.49,304.54 988.54,314.33 C985.32,322.32 978.64,335.56 976.88,337.45 C976.40,337.97 976.00,338.98 976.00,339.70 ZM 526.00 193.62 C526.00,195.79 536.26,195.42 540.79,193.10 C547.08,189.86 549.97,182.04 546.56,177.44 C545.18,175.58 544.94,175.68 540.31,180.09 C537.67,182.61 533.36,186.38 530.75,188.46 C528.14,190.54 526.00,192.86 526.00,193.62 ZM 1589.57 100.11 C1590.52,101.66 1596.93,101.08 1600.79,99.10 C1608.40,95.19 1610.67,84.51 1605.08,78.92 C1600.27,74.12 1598.23,75.11 1602.50,80.18 C1604.18,82.18 1605.00,84.37 1605.00,86.85 C1605.00,93.07 1600.86,97.00 1592.72,98.52 C1590.69,98.91 1589.27,99.62 1589.57,100.11 ZM 1000.38 242.60 L 999.77 250.50 L 1003.41 246.95 L 1007.06 243.41 L 1004.99 236.70 C1002.92,230.01 1001.00,227.91 1001.00,232.35 C1001.00,233.64 1000.72,238.25 1000.38,242.60 Z" fill="rgb(12,12,12)"/>
<path d="M 1167.64 265.31 C1167.03,263.88 1166.47,262.48 1165.94,261.15 C1164.19,256.74 1162.18,252.90 1161.47,252.63 C1160.07,252.09 1160.34,253.49 1163.29,262.00 C1162.92,261.13 1162.27,259.46 1161.60,257.71 C1160.15,253.97 1158.82,250.15 1158.64,249.21 C1158.46,248.27 1157.78,246.21 1157.13,244.63 C1155.61,240.91 1145.00,204.62 1145.00,203.14 C1145.00,200.18 1146.89,202.51 1147.93,206.75 C1149.73,214.07 1158.62,243.56 1159.92,246.50 C1161.98,251.17 1166.36,261.89 1167.64,265.31 ZM 994.50 275.16 C994.96,275.63 993.88,281.38 992.25,288.08 C992.25,288.05 992.25,288.01 992.26,287.98 C992.70,282.79 990.55,285.06 987.70,292.80 C985.59,298.54 982.39,305.75 978.62,313.37 C983.16,304.05 986.89,295.09 989.58,287.00 C993.71,274.55 993.76,274.43 994.50,275.16 ZM 805.07 465.65 C805.39,465.30 809.44,464.09 814.07,462.95 C818.62,461.84 823.29,460.52 828.00,459.03 C824.24,460.26 820.41,461.44 816.50,462.57 C811.37,464.06 810.86,464.40 813.00,464.95 C813.94,465.19 815.16,465.30 816.61,465.29 C810.29,465.97 804.51,466.26 805.07,465.65 ZM 1141.68 191.69 C1141.94,191.88 1142.26,192.00 1142.61,192.00 C1143.21,192.00 1143.60,191.78 1143.73,191.41 C1144.78,196.04 1145.07,197.60 1144.71,197.76 C1144.52,197.85 1144.15,197.54 1143.60,197.08 L 1143.49 196.99 C1142.65,196.30 1142.05,195.23 1142.14,194.62 C1142.24,194.00 1142.08,192.82 1141.78,192.00 C1141.76,191.92 1141.72,191.82 1141.68,191.69 ZM 530.95 182.81 C533.33,180.58 534.36,179.03 533.77,178.44 C533.58,178.24 532.15,178.40 530.22,178.75 C531.39,178.43 532.33,178.07 532.70,177.78 C533.36,177.26 534.70,176.99 535.67,177.17 C536.85,177.40 535.54,178.99 530.95,182.81 ZM 846.91 458.43 C854.12,455.98 861.52,453.02 868.18,449.81 C881.94,443.16 895.73,433.88 908.49,422.88 C889.55,439.42 869.68,450.90 846.91,458.43 ZM 1141.23 169.88 C1141.31,162.60 1142.07,154.79 1143.51,148.08 C1144.33,144.23 1145.54,140.38 1147.11,136.55 C1143.63,145.47 1141.91,155.17 1141.35,167.00 C1141.30,168.03 1141.26,168.98 1141.23,169.88 ZM 1182.30 92.55 C1195.87,81.36 1212.72,70.67 1232.55,60.73 C1213.50,70.28 1195.98,81.42 1182.30,92.55 ZM 551.76 186.08 C550.71,190.11 547.87,193.50 543.90,195.79 C547.76,193.34 550.49,189.79 551.76,186.08 ZM 1133.35 171.28 C1135.68,174.20 1137.47,177.67 1138.78,181.74 C1139.61,184.31 1140.33,186.92 1140.71,188.61 C1140.20,186.94 1139.57,184.84 1138.94,182.71 C1137.58,178.16 1135.77,174.39 1133.35,171.28 ZM 1174.14 287.89 C1178.06,295.70 1182.37,302.90 1187.05,309.49 C1181.77,302.06 1178.10,296.15 1174.14,287.89 ZM 1175.72 282.85 C1180.37,291.97 1186.07,302.66 1189.73,308.87 C1191.48,311.84 1193.19,314.81 1194.70,317.47 C1193.19,314.81 1191.47,311.84 1189.73,308.87 C1184.99,300.84 1180.08,291.68 1175.72,282.85 ZM 982.74 316.73 C984.96,311.45 987.31,305.10 989.12,299.63 C988.74,300.89 988.36,302.10 987.99,303.22 C986.47,307.75 984.80,312.09 982.74,316.73 ZM 951.66 371.98 C959.24,359.84 969.13,342.97 975.48,331.39 C972.39,337.13 968.66,343.68 964.02,351.55 C959.32,359.52 955.30,366.20 951.66,371.98 ZM 855.35 448.66 C867.70,443.18 878.91,437.04 887.00,431.10 C878.73,437.17 867.92,443.14 855.35,448.66 ZM 527.12 198.70 C523.09,198.09 521.07,196.49 521.15,194.20 C521.20,195.29 521.82,196.24 522.96,197.17 C523.85,197.89 525.33,198.40 527.12,198.70 ZM 526.89 179.43 C524.11,180.06 521.13,180.87 519.28,181.56 C518.24,181.95 517.43,182.30 516.81,182.66 C517.38,182.31 518.10,181.98 519.01,181.61 C521.08,180.78 524.54,179.83 526.89,179.43 ZM 1143.32 189.60 C1142.73,187.75 1142.26,185.48 1141.92,182.92 C1142.17,184.39 1142.50,185.96 1142.90,187.74 L 1143.05 188.39 ZM 929.86 401.71 C933.37,397.73 936.71,393.62 939.86,389.44 C936.59,393.85 933.37,397.79 929.86,401.71 ZM 522.40 190.92 C523.31,189.55 524.72,188.04 526.64,186.44 C524.70,188.18 523.30,189.64 522.40,190.92 ZM 551.75 177.09 C551.28,175.95 550.61,174.88 549.71,173.92 C550.63,174.91 551.30,175.94 551.75,177.09 Z" fill="rgb(146,146,146)"/>
<path d="M 0.00 246.00 L 0.00 0.00 L 950.50 0.00 L 1901.00 0.00 L 1901.00 246.00 L 1901.00 492.00 L 950.50 492.00 L 0.00 492.00 L 0.00 246.00 ZM 751.50 476.82 C759.53,475.74 763.00,474.62 763.00,473.12 C763.00,472.67 755.01,472.01 745.25,471.65 C708.31,470.27 683.35,468.85 679.00,467.88 C673.78,466.72 662.69,461.87 655.50,457.60 C639.11,447.86 613.65,421.35 599.20,399.00 C589.80,384.45 589.27,383.53 584.18,372.88 C564.42,331.53 556.88,294.52 555.19,230.64 L 554.45 202.78 L 551.98 200.78 C549.98,199.16 548.58,198.89 544.65,199.36 C541.97,199.67 539.27,200.32 538.64,200.79 C538.01,201.26 534.66,202.48 531.20,203.50 C523.62,205.72 520.58,204.99 517.31,200.13 C514.59,196.09 513.55,191.21 514.42,186.57 C514.96,183.68 515.72,182.89 519.28,181.56 C523.41,180.01 533.23,177.90 533.77,178.44 C534.60,179.26 532.25,181.98 527.44,185.79 C517.75,193.46 519.40,199.02 531.36,198.98 C541.95,198.94 550.50,193.18 551.99,185.08 C552.94,179.85 552.30,176.70 549.71,173.92 C547.67,171.73 547.66,171.60 549.40,167.09 C550.37,164.57 551.75,160.17 552.47,157.32 C555.58,145.07 561.76,136.01 571.38,129.62 C592.58,115.55 626.45,104.83 671.00,98.10 C727.82,89.51 801.42,87.88 853.00,94.05 C871.62,96.27 875.78,97.01 900.50,102.50 C915.68,105.87 934.75,113.26 949.25,121.39 C968.90,132.41 985.44,158.59 994.16,192.50 C996.25,200.64 996.46,203.64 996.42,224.00 C996.37,244.80 996.16,247.40 993.65,258.37 C991.24,268.87 986.77,283.60 982.83,294.00 C980.48,300.21 969.22,322.67 961.99,335.59 C955.82,346.61 938.73,373.62 937.06,375.00 C936.73,375.27 935.74,376.62 934.86,378.00 C931.49,383.31 919.43,396.91 910.17,405.83 C892.29,423.08 872.38,436.78 853.36,444.89 C847.94,447.21 842.83,449.45 842.00,449.87 C840.08,450.86 829.83,454.02 814.00,458.51 C798.15,463.00 794.00,464.79 794.00,467.12 C794.00,471.51 802.86,472.13 821.00,469.01 C841.77,465.44 862.64,458.39 878.00,449.75 C886.36,445.05 902.61,433.67 911.00,426.64 C920.10,419.01 937.13,400.41 944.98,389.50 C950.95,381.21 962.22,363.60 967.89,353.69 C969.68,350.56 971.25,348.00 971.38,348.00 C971.50,348.00 971.58,350.44 971.55,353.42 C971.46,363.15 977.27,367.47 984.47,363.02 C989.32,360.02 998.02,348.04 1004.96,334.81 C1011.60,322.14 1015.04,313.06 1017.39,302.00 C1019.74,290.98 1023.07,260.64 1022.36,256.81 C1021.50,252.22 1018.52,247.56 1015.58,246.22 C1011.79,244.49 1010.44,241.58 1006.89,227.50 C1002.49,210.04 1002.36,200.99 1006.36,192.31 C1010.28,183.82 1015.83,180.21 1034.00,174.35 C1060.18,165.90 1078.74,162.65 1097.50,163.24 C1112.91,163.72 1118.52,165.10 1125.60,170.18 C1131.50,174.41 1133.37,178.26 1138.93,197.50 C1145.19,219.16 1158.83,262.29 1163.29,274.50 C1167.97,287.33 1177.75,304.62 1188.74,319.50 C1191.12,322.72 1192.14,328.21 1190.50,328.96 C1189.10,329.60 1179.35,314.72 1172.17,301.00 C1166.47,290.11 1158.78,272.27 1156.01,263.50 C1153.66,256.05 1149.82,247.52 1147.35,244.25 C1142.54,237.88 1135.71,240.63 1132.43,250.26 C1130.97,254.53 1130.98,255.53 1132.51,262.39 C1135.24,274.67 1141.15,287.25 1149.94,299.50 C1152.71,303.35 1156.12,308.20 1157.52,310.29 C1158.92,312.37 1161.55,315.74 1163.35,317.79 C1165.15,319.83 1168.70,324.20 1171.22,327.50 C1185.50,346.17 1193.93,350.81 1200.74,343.75 C1204.86,339.48 1206.26,335.54 1205.43,330.54 C1204.63,325.69 1202.95,322.28 1195.64,310.66 C1180.15,286.03 1164.67,250.36 1155.64,218.50 C1145.82,183.88 1145.70,183.20 1146.28,166.50 C1146.90,148.78 1149.13,140.36 1156.60,127.50 C1162.52,117.31 1181.36,98.32 1195.50,88.28 C1214.50,74.78 1241.95,60.03 1263.50,51.71 C1288.69,42.00 1341.00,32.21 1401.00,25.98 C1433.36,22.62 1487.21,22.36 1510.00,25.45 C1524.17,27.38 1539.12,31.42 1546.44,35.30 C1555.17,39.93 1563.09,48.27 1567.41,57.38 C1569.39,61.54 1571.00,66.01 1571.00,67.31 C1571.00,68.61 1571.89,73.17 1572.98,77.44 C1574.39,82.92 1574.68,85.73 1573.98,87.03 C1572.23,90.31 1572.93,94.40 1576.88,104.09 C1581.51,115.42 1583.27,126.89 1585.21,158.50 C1587.79,200.45 1586.86,233.59 1582.39,259.50 C1572.69,315.74 1558.12,344.26 1525.89,370.10 C1509.56,383.20 1494.60,390.87 1466.50,400.56 C1424.74,414.95 1384.34,417.93 1346.50,409.41 C1313.80,402.04 1281.12,383.73 1247.65,354.02 C1229.82,338.20 1226.98,336.00 1224.35,336.00 C1220.76,336.00 1220.40,338.63 1223.22,344.37 C1231.31,360.83 1252.47,382.52 1275.39,397.85 C1292.16,409.06 1322.36,420.63 1345.22,424.58 C1362.82,427.63 1427.79,428.48 1544.40,427.18 C1657.69,425.91 1776.02,423.78 1829.50,422.04 C1846.55,421.48 1866.86,421.02 1874.63,421.02 C1886.05,421.00 1889.00,420.71 1890.02,419.48 C1890.72,418.64 1891.02,417.68 1890.69,417.35 C1890.36,417.03 1854.18,417.51 1810.30,418.43 C1675.53,421.26 1640.32,421.85 1529.00,423.08 C1372.83,424.82 1351.75,423.91 1321.50,414.16 C1287.53,403.21 1262.22,386.81 1240.47,361.66 C1233.08,353.10 1227.75,345.26 1228.27,343.69 C1228.49,343.03 1231.74,345.41 1235.59,349.06 C1264.34,376.34 1289.82,393.37 1320.09,405.53 C1342.43,414.52 1361.83,418.00 1389.46,418.00 C1423.54,418.00 1450.14,412.38 1487.50,397.28 C1531.58,379.47 1560.34,350.28 1574.98,308.50 C1580.66,292.29 1585.80,268.97 1589.53,242.50 C1591.95,225.31 1591.74,186.30 1589.05,151.50 C1586.57,119.44 1585.19,111.38 1580.36,100.70 C1576.15,91.36 1576.37,89.43 1582.24,84.69 C1587.30,80.60 1595.69,79.69 1598.89,82.89 C1603.96,87.96 1600.05,93.01 1589.50,95.00 C1582.43,96.33 1581.54,96.97 1582.51,100.02 C1584.08,104.98 1595.79,106.68 1603.01,103.00 C1608.98,99.95 1612.00,94.80 1612.00,87.67 C1612.00,76.71 1607.00,71.25 1597.93,72.32 C1593.57,72.84 1582.52,77.49 1579.30,80.17 C1577.71,81.48 1577.63,81.23 1575.53,68.95 C1571.58,45.96 1556.15,31.07 1529.50,24.56 C1510.59,19.94 1494.55,18.79 1456.19,19.31 C1397.90,20.09 1358.22,24.76 1293.50,38.45 C1273.25,42.74 1255.56,49.20 1232.55,60.73 C1181.43,86.34 1150.17,117.01 1143.51,148.08 C1140.39,162.61 1140.47,182.25 1143.68,190.60 C1144.00,191.44 1143.57,192.00 1142.61,192.00 C1141.72,192.00 1141.00,191.24 1141.00,190.32 C1141.00,189.40 1140.00,185.54 1138.78,181.74 C1135.09,170.30 1127.67,163.67 1114.88,160.39 C1105.97,158.11 1076.30,158.94 1063.12,161.84 C1040.42,166.82 1018.78,174.30 1010.45,180.03 C1007.22,182.25 1005.28,184.73 1002.99,189.52 C1001.29,193.08 999.74,196.00 999.54,196.00 C999.34,196.00 998.24,191.91 997.09,186.92 C992.05,165.03 979.22,140.97 965.74,128.12 C958.03,120.77 944.53,112.37 934.50,108.69 C899.83,95.95 880.01,91.78 836.00,87.96 C789.97,83.97 721.41,86.16 675.00,93.11 C671.42,93.65 665.58,94.51 662.00,95.03 C658.42,95.55 653.70,96.40 651.50,96.93 C649.30,97.45 643.00,98.85 637.50,100.04 C632.00,101.23 623.67,103.33 619.00,104.70 C614.33,106.07 608.47,107.78 606.00,108.50 C589.59,113.24 571.90,122.44 562.43,131.17 C554.43,138.55 552.06,142.97 547.35,159.35 C545.15,166.99 542.20,171.26 538.48,172.17 C536.84,172.57 531.45,173.87 526.50,175.06 C521.55,176.25 516.35,177.82 514.94,178.54 C506.54,182.86 509.35,202.51 519.10,207.55 C523.15,209.65 526.04,209.38 537.08,205.88 C542.49,204.16 547.57,203.00 548.35,203.31 C549.47,203.73 549.92,207.31 550.41,219.68 C552.45,270.94 554.47,294.56 557.97,307.98 C558.48,309.91 559.84,315.55 560.99,320.50 C570.18,360.02 588.60,396.82 613.46,425.36 C629.49,443.76 641.26,454.09 655.79,462.51 C660.35,465.15 663.73,467.65 663.29,468.06 C662.86,468.47 646.97,468.43 628.00,467.98 C609.03,467.53 571.22,466.67 544.00,466.07 C516.78,465.46 478.30,464.48 458.50,463.88 C404.51,462.26 188.03,461.58 140.50,462.89 C67.74,464.89 33.58,466.01 27.25,466.59 C21.79,467.09 21.00,467.42 21.00,469.22 C21.00,471.20 21.37,471.26 29.75,470.65 C38.54,470.00 77.86,468.84 153.00,467.01 C236.36,464.97 381.66,466.12 528.50,469.97 C550.50,470.55 590.78,471.47 618.00,472.01 C671.70,473.07 677.95,473.38 691.50,475.62 C711.98,479.00 732.25,479.40 751.50,476.82 ZM 813.00 464.95 C810.86,464.40 811.37,464.06 816.50,462.57 C845.71,454.11 871.07,442.79 887.00,431.10 C917.38,408.81 938.48,384.42 960.21,346.50 C961.78,343.75 963.49,340.83 963.99,340.00 C973.40,324.59 983.13,305.25 987.70,292.80 C990.55,285.06 992.70,282.79 992.26,287.98 C991.85,292.76 985.26,311.72 980.54,321.68 C975.24,332.88 954.59,368.14 945.37,381.73 C925.95,410.37 897.02,435.89 868.18,449.81 C847.98,459.56 820.91,466.99 813.00,464.95 ZM 977.13 359.65 C975.02,357.12 974.73,352.36 976.46,348.73 C977.37,346.80 980.58,342.88 983.58,340.01 C992.69,331.32 996.21,325.06 1002.46,306.50 C1010.96,281.20 1015.59,260.74 1014.34,254.00 C1013.75,250.85 1013.85,250.63 1015.32,251.85 C1017.88,253.97 1018.24,258.62 1017.02,273.58 C1015.25,295.21 1011.53,311.39 1005.10,325.50 C997.62,341.90 984.01,361.00 979.81,361.00 C978.95,361.00 977.74,360.39 977.13,359.65 ZM 1188.75 340.35 C1184.64,337.42 1167.15,315.99 1155.17,299.20 C1142.30,281.16 1134.93,263.00 1136.31,252.71 C1137.23,245.86 1141.19,243.88 1144.79,248.46 C1145.86,249.82 1149.09,257.36 1151.96,265.21 C1162.08,292.84 1176.06,320.02 1185.94,331.28 C1191.13,337.19 1196.00,335.98 1196.00,328.77 C1196.00,323.49 1194.11,319.43 1187.05,309.49 C1177.56,296.14 1169.62,280.27 1163.29,262.00 C1160.34,253.49 1160.07,252.09 1161.47,252.63 C1162.18,252.90 1164.19,256.74 1165.94,261.15 C1171.23,274.55 1180.79,293.71 1189.73,308.87 C1194.39,316.78 1198.83,324.75 1199.60,326.59 C1201.87,332.02 1201.40,336.97 1198.31,340.20 C1194.98,343.68 1193.46,343.70 1188.75,340.35 ZM 976.00 339.70 C976.00,338.98 976.40,337.97 976.88,337.45 C978.64,335.56 985.32,322.32 988.54,314.33 C992.49,304.54 995.16,294.82 997.44,282.00 C1001.05,261.71 1001.98,257.68 1004.04,253.41 C1006.23,248.89 1008.32,247.78 1009.39,250.58 C1011.26,255.45 1009.07,271.39 1004.52,286.00 C994.57,317.94 990.71,326.64 982.62,335.25 C977.01,341.21 976.00,341.89 976.00,339.70 ZM 1000.38 242.60 C1000.72,238.25 1001.00,233.64 1001.00,232.35 C1001.00,227.91 1002.92,230.01 1004.99,236.70 L 1007.06 243.41 L 1003.41 246.95 L 999.77 250.50 L 1000.38 242.60 ZM 526.00 193.62 C526.00,192.86 528.14,190.54 530.75,188.46 C533.36,186.38 537.67,182.61 540.31,180.09 C544.94,175.68 545.18,175.58 546.56,177.44 C549.97,182.04 547.08,189.86 540.79,193.10 C536.26,195.42 526.00,195.79 526.00,193.62 ZM 1589.57 100.11 C1589.27,99.62 1590.69,98.91 1592.72,98.52 C1600.86,97.00 1605.00,93.07 1605.00,86.85 C1605.00,84.37 1604.18,82.18 1602.50,80.18 C1598.23,75.11 1600.27,74.12 1605.08,78.92 C1610.67,84.51 1608.40,95.19 1600.79,99.10 C1596.93,101.08 1590.52,101.66 1589.57,100.11 Z" fill="rgb(254,254,254)"/>
</g>
</svg>